<?xml version="1.0" encoding="UTF-8" standalone="no"?>
<!-- Created with Inkscape (http://www.inkscape.org/) -->

<svg
   xmlns:dc="http://purl.org/dc/elements/1.1/"
   xmlns:cc="http://creativecommons.org/ns#"
   xmlns:rdf="http://www.w3.org/1999/02/22-rdf-syntax-ns#"
   xmlns:svg="http://www.w3.org/2000/svg"
   xmlns="http://www.w3.org/2000/svg"
   xmlns:sodipodi="http://sodipodi.sourceforge.net/DTD/sodipodi-0.dtd"
   xmlns:inkscape="http://www.inkscape.org/namespaces/inkscape"
   width="335.36911"
   height="147.61456"
   viewBox="0 0 88.733075 39.056356"
   version="1.1"
   id="svg8"
   sodipodi:docname="putts.svg"
   inkscape:version="0.92.4 (5da689c313, 2019-01-14)">
  <defs
     id="defs2" />
  <sodipodi:namedview
     id="base"
     pagecolor="#ffffff"
     bordercolor="#666666"
     borderopacity="1.0"
     inkscape:pageopacity="0.0"
     inkscape:pageshadow="2"
     inkscape:zoom="2.8"
     inkscape:cx="4.5091208"
     inkscape:cy="-24.912112"
     inkscape:document-units="px"
     inkscape:current-layer="layer1"
     showgrid="false"
     units="px"
     inkscape:pagecheckerboard="true"
     inkscape:window-width="2560"
     inkscape:window-height="1377"
     inkscape:window-x="1912"
     inkscape:window-y="-8"
     inkscape:window-maximized="1"
     fit-margin-top="0"
     fit-margin-left="0"
     fit-margin-right="0"
     fit-margin-bottom="0" />
  <metadata
     id="metadata5">
    <rdf:RDF>
      <cc:Work
         rdf:about="">
        <dc:format>image/svg+xml</dc:format>
        <dc:type
           rdf:resource="http://purl.org/dc/dcmitype/StillImage" />
        <dc:title />
      </cc:Work>
    </rdf:RDF>
  </metadata>
  <g
     inkscape:label="Layer 1"
     inkscape:groupmode="layer"
     id="layer1"
     transform="translate(125.25245,-136.44117)">
    <g
       id="g891"
       transform="translate(-190.16227,18.307962)"
       inkscape:export-filename="D:\wamp64\www\GolfSucks\_images\putts-large.png"
       inkscape:export-xdpi="289.40051"
       inkscape:export-ydpi="289.40051">
      <path
         style="opacity:1;fill:#ffffff;fill-opacity:1;stroke:none;stroke-width:1.19306898;stroke-opacity:1"
         d="M 98.748047 0 A 66.285 66.285 0 0 0 32.462891 66.285156 A 66.285 66.285 0 0 0 98.748047 132.57031 A 66.285 66.285 0 0 0 165.0332 66.285156 A 66.285 66.285 0 0 0 98.748047 0 z M 65.921875 15.144531 A 3.0304576 3.0304576 0 0 1 68.951172 18.175781 A 3.0304576 3.0304576 0 0 1 65.921875 21.205078 A 3.0304576 3.0304576 0 0 1 62.890625 18.175781 A 3.0304576 3.0304576 0 0 1 65.921875 15.144531 z M 75.207031 18.359375 A 3.0304576 3.0304576 0 0 1 78.238281 21.388672 A 3.0304576 3.0304576 0 0 1 75.207031 24.419922 A 3.0304576 3.0304576 0 0 1 72.177734 21.388672 A 3.0304576 3.0304576 0 0 1 75.207031 18.359375 z M 57.318359 21.15625 A 3.0304576 3.0304576 0 0 1 60.349609 24.1875 A 3.0304576 3.0304576 0 0 1 57.318359 27.216797 A 3.0304576 3.0304576 0 0 1 54.289062 24.1875 A 3.0304576 3.0304576 0 0 1 57.318359 21.15625 z M 66.636719 24.787109 A 3.0304576 3.0304576 0 0 1 69.666016 27.818359 A 3.0304576 3.0304576 0 0 1 66.636719 30.847656 A 3.0304576 3.0304576 0 0 1 63.605469 27.818359 A 3.0304576 3.0304576 0 0 1 66.636719 24.787109 z M 57.529297 30.859375 A 3.0304576 3.0304576 0 0 1 60.558594 33.888672 A 3.0304576 3.0304576 0 0 1 57.529297 36.919922 A 3.0304576 3.0304576 0 0 1 54.498047 33.888672 A 3.0304576 3.0304576 0 0 1 57.529297 30.859375 z "
         transform="matrix(0.26458334,0,0,0.26458334,64.90982,118.13321)"
         id="path817" />
      <path
         inkscape:connector-curvature="0"
         id="path821"
         d="m 109.2761,140.38025 a 44.36674,10.156241 0 0 0 -44.366279,10.15597 44.36674,10.156241 0 0 0 10.909411,6.65128 38.385609,8.5718689 0 0 1 -4.928383,-4.18114 38.385609,8.5718689 0 0 1 38.385251,-8.57209 38.385609,8.5718689 0 0 1 38.38577,8.57209 38.385609,8.5718689 0 0 1 -4.90151,4.1832 44.36674,10.156241 0 0 0 10.88254,-6.65334 44.36674,10.156241 0 0 0 -44.3668,-10.15597 z"
         style="opacity:1;fill:#ffffff;fill-opacity:1;stroke:none;stroke-width:0.26458332;stroke-opacity:1" />
    </g>
  </g>
</svg>
