<?xml version="1.0" encoding="UTF-8" standalone="no"?>
<!-- Created with Inkscape (http://www.inkscape.org/) -->

<svg
   xmlns:dc="http://purl.org/dc/elements/1.1/"
   xmlns:cc="http://creativecommons.org/ns#"
   xmlns:rdf="http://www.w3.org/1999/02/22-rdf-syntax-ns#"
   xmlns:svg="http://www.w3.org/2000/svg"
   xmlns="http://www.w3.org/2000/svg"
   xmlns:sodipodi="http://sodipodi.sourceforge.net/DTD/sodipodi-0.dtd"
   xmlns:inkscape="http://www.inkscape.org/namespaces/inkscape"
   width="68.153976mm"
   height="71.482018mm"
   viewBox="0 0 68.153976 71.482018"
   version="1.1"
   id="svg8"
   sodipodi:docname="tee-accuracy-yellow-tee.svg"
   inkscape:version="0.92.4 (5da689c313, 2019-01-14)">
  <defs
     id="defs2" />
  <sodipodi:namedview
     id="base"
     pagecolor="#ffffff"
     bordercolor="#666666"
     borderopacity="1.0"
     inkscape:pageopacity="0.0"
     inkscape:pageshadow="2"
     inkscape:zoom="2.8"
     inkscape:cx="208.73691"
     inkscape:cy="138.98897"
     inkscape:document-units="px"
     inkscape:current-layer="layer1"
     showgrid="false"
     inkscape:pagecheckerboard="true"
     inkscape:snap-midpoints="false"
     inkscape:window-width="2560"
     inkscape:window-height="1377"
     inkscape:window-x="1912"
     inkscape:window-y="-8"
     inkscape:window-maximized="1"
     fit-margin-top="0"
     fit-margin-left="0"
     fit-margin-right="0"
     fit-margin-bottom="0" />
  <metadata
     id="metadata5">
    <rdf:RDF>
      <cc:Work
         rdf:about="">
        <dc:format>image/svg+xml</dc:format>
        <dc:type
           rdf:resource="http://purl.org/dc/dcmitype/StillImage" />
        <dc:title />
      </cc:Work>
    </rdf:RDF>
  </metadata>
  <g
     inkscape:label="Layer 1"
     inkscape:groupmode="layer"
     id="layer1"
     transform="translate(-70.423095,-114.42299)">
    <g
       id="g1163">
      <g
         id="g1177">
        <g
           id="g1029"
           transform="translate(2.9257091e-7,3.3278494)">
          <rect
             y="156.35506"
             x="103.03535"
             height="26.222099"
             width="2.9293156"
             id="rect934"
             style="opacity:1;fill:#ffff00;fill-opacity:1;stroke:none;stroke-width:0.29882443;stroke-opacity:1" />
          <g
             transform="translate(63.405507,11.465481)"
             id="g986">
            <g
               id="g977">
              <path
                 inkscape:connector-curvature="0"
                 id="rect936"
                 d="m 39.630802,154.48404 6.52009,-6.52009 h -6.52009 z"
                 style="opacity:1;fill:#ffff00;fill-opacity:1;stroke:none;stroke-width:0.38033861;stroke-opacity:1" />
              <g
                 id="g971">
                <ellipse
                   style="opacity:1;fill:#ffff00;fill-opacity:1;stroke:none;stroke-width:0.27608356;stroke-opacity:1"
                   id="path928"
                   cx="41.094494"
                   cy="146.61012"
                   rx="6.2838736"
                   ry="2.5040922" />
                <path
                   style="opacity:1;fill:#ffff00;fill-opacity:1;stroke:none;stroke-width:0.38033861;stroke-opacity:1"
                   d="m 42.56012,154.48404 -6.52009,-6.52009 h 6.52009 z"
                   id="rect936-3"
                   inkscape:connector-curvature="0" />
              </g>
            </g>
            <path
               style="opacity:1;fill:#ffffff;fill-opacity:1;stroke:none;stroke-width:1.39712918;stroke-opacity:1"
               d="m 394.96094,507.88672 a 52.142866,52.142866 0 0 0 -52.14258,52.14258 52.142866,52.142866 0 0 0 52.14258,52.14258 52.142866,52.142866 0 0 0 52.14258,-52.14258 52.142866,52.142866 0 0 0 -52.14258,-52.14258 z m -28.02344,12.97656 a 2.6352427,2.6352427 0 0 1 2.63477,2.63672 2.6352427,2.6352427 0 0 1 -2.63477,2.63477 2.6352427,2.6352427 0 0 1 -2.63477,-2.63477 2.6352427,2.6352427 0 0 1 2.63477,-2.63672 z m 8.58594,0 a 2.6352427,2.6352427 0 0 1 2.63672,2.63672 2.6352427,2.6352427 0 0 1 -2.63672,2.63477 2.6352427,2.6352427 0 0 1 -2.63477,-2.63477 2.6352427,2.6352427 0 0 1 2.63477,-2.63672 z m -10.10156,7.57617 a 2.6352427,2.6352427 0 0 1 2.63671,2.63672 2.6352427,2.6352427 0 0 1 -2.63671,2.63477 2.6352427,2.6352427 0 0 1 -2.63477,-2.63477 2.6352427,2.6352427 0 0 1 2.63477,-2.63672 z m 8.83984,0.25391 a 2.6352427,2.6352427 0 0 1 2.63476,2.63476 2.6352427,2.6352427 0 0 1 -2.63476,2.63477 2.6352427,2.6352427 0 0 1 -2.63477,-2.63477 2.6352427,2.6352427 0 0 1 2.63477,-2.63476 z m -15.91016,3.53516 a 2.6352427,2.6352427 0 0 1 2.63477,2.63476 2.6352427,2.6352427 0 0 1 -2.63477,2.63477 2.6352427,2.6352427 0 0 1 -2.63476,-2.63477 2.6352427,2.6352427 0 0 1 2.63476,-2.63476 z m 5.60547,6.0039 a 2.6352427,2.6352427 0 0 1 2.63477,2.63477 2.6352427,2.6352427 0 0 1 -2.63477,2.63476 2.6352427,2.6352427 0 0 1 -2.63476,-2.63476 2.6352427,2.6352427 0 0 1 2.63476,-2.63477 z"
               transform="matrix(0.26458334,0,0,0.26458334,-63.405507,-14.79333)"
               id="path930"
               inkscape:connector-curvature="0" />
          </g>
        </g>
        <path
           style="opacity:1;fill:#08946d;fill-opacity:1;stroke:none;stroke-width:0.27034909;stroke-opacity:1"
           d="m 104.50025,120.30328 a 28.196935,28.196935 0 0 0 -28.197244,28.19673 28.196935,28.196935 0 0 0 28.197244,28.19673 28.196935,28.196935 0 0 0 28.19673,-28.19673 28.196935,28.196935 0 0 0 -28.19673,-28.19673 z m 0,5.302 a 22.894904,22.894904 0 0 1 22.89473,22.89473 22.894904,22.894904 0 0 1 -22.89473,22.89472 22.894904,22.894904 0 0 1 -22.895242,-22.89472 22.894904,22.894904 0 0 1 22.895242,-22.89473 z"
           id="path835"
           inkscape:connector-curvature="0" />
        <path
           inkscape:connector-curvature="0"
           style="opacity:1;fill:#08946d;fill-opacity:1;stroke:none;stroke-width:0.29330772;stroke-opacity:1"
           d="m 70.423095,145.84898 v 5.30201 H 92.87392 v -5.30201 z m 45.703155,0 v 5.30201 h 22.45082 v -5.30201 z"
           id="rect841-9" />
        <rect
           style="opacity:1;fill:#08946d;fill-opacity:1;stroke:none;stroke-width:0.20562433;stroke-opacity:1"
           id="rect1066"
           width="5.3022499"
           height="22.449896"
           x="101.84884"
           y="114.42299" />
      </g>
    </g>
  </g>
</svg>
