<?xml version="1.0" encoding="UTF-8" standalone="no"?>
<!-- Created with Inkscape (http://www.inkscape.org/) -->

<svg
   xmlns:dc="http://purl.org/dc/elements/1.1/"
   xmlns:cc="http://creativecommons.org/ns#"
   xmlns:rdf="http://www.w3.org/1999/02/22-rdf-syntax-ns#"
   xmlns:svg="http://www.w3.org/2000/svg"
   xmlns="http://www.w3.org/2000/svg"
   xmlns:sodipodi="http://sodipodi.sourceforge.net/DTD/sodipodi-0.dtd"
   xmlns:inkscape="http://www.inkscape.org/namespaces/inkscape"
   width="3.3987265in"
   height="1.732857in"
   viewBox="0 0 86.327652 44.014568"
   version="1.1"
   id="svg8"
   inkscape:version="0.92.4 (5da689c313, 2019-01-14)"
   sodipodi:docname="green2-color-touch.svg">
  <defs
     id="defs2" />
  <sodipodi:namedview
     id="base"
     pagecolor="#ffffff"
     bordercolor="#666666"
     borderopacity="1.0"
     inkscape:pageopacity="0.0"
     inkscape:pageshadow="2"
     inkscape:zoom="1.979899"
     inkscape:cx="182.13892"
     inkscape:cy="97.269454"
     inkscape:document-units="mm"
     inkscape:current-layer="layer1"
     showgrid="false"
     inkscape:pagecheckerboard="true"
     fit-margin-top="0"
     fit-margin-left="0"
     fit-margin-right="0"
     fit-margin-bottom="0"
     inkscape:window-width="2560"
     inkscape:window-height="1377"
     inkscape:window-x="1912"
     inkscape:window-y="-8"
     inkscape:window-maximized="1"
     units="in" />
  <metadata
     id="metadata5">
    <rdf:RDF>
      <cc:Work
         rdf:about="">
        <dc:format>image/svg+xml</dc:format>
        <dc:type
           rdf:resource="http://purl.org/dc/dcmitype/StillImage" />
        <dc:title></dc:title>
      </cc:Work>
    </rdf:RDF>
  </metadata>
  <g
     inkscape:label="Layer 1"
     inkscape:groupmode="layer"
     id="layer1"
     transform="translate(-159.26269,41.198425)">
    <g
       id="g966">
      <path
         inkscape:connector-curvature="0"
         id="path839"
         d="M 202.42651,-19.012723 A 43.16403,10.914155 0 0 0 159.26269,-8.0982897 43.16403,10.914155 0 0 0 202.42651,2.8161429 43.16403,10.914155 0 0 0 245.59034,-8.0982897 43.16403,10.914155 0 0 0 202.42651,-19.012723 Z m 0,3.228379 a 36.002189,7.6860249 0 0 1 36.00218,7.6860543 36.002189,7.6860249 0 0 1 -36.00218,7.6860536 36.002189,7.6860249 0 0 1 -36.00217,-7.6860536 36.002189,7.6860249 0 0 1 36.00217,-7.6860543 z"
         style="opacity:1;fill:#08946d;fill-opacity:1;stroke:none;stroke-width:0.26804984;stroke-opacity:1" />
      <path
         inkscape:connector-curvature="0"
         id="path839-9-2"
         d="m 202.42652,-13.17085 a 29.082129,5.0727763 0 0 0 -29.08195,5.0725598 29.082129,5.0727763 0 0 0 29.08195,5.0725599 29.082129,5.0727763 0 0 0 29.08194,-5.0725599 29.082129,5.0727763 0 0 0 -29.08194,-5.0725598 z m 0,4.2116295 a 3.8440632,0.86090148 0 0 1 3.84421,0.8609303 3.8440632,0.86090148 0 0 1 -3.84421,0.8609304 3.8440632,0.86090148 0 0 1 -3.84421,-0.8609304 3.8440632,0.86090148 0 0 1 3.84421,-0.8609303 z"
         style="opacity:1;fill:#08946d;fill-opacity:1;stroke:none;stroke-width:0.15000144;stroke-opacity:1" />
      <rect
         y="-41.198425"
         x="201.62471"
         height="33.141418"
         width="1.6036171"
         id="rect955"
         style="opacity:1;fill:#ffff00;fill-opacity:1;stroke:none;stroke-width:0.22052315;stroke-opacity:1" />
      <path
         sodipodi:nodetypes="cccc"
         inkscape:connector-curvature="0"
         id="rect957"
         d="m 203.22833,-35.237464 12.04821,-3.337561 -12.04821,-2.6234 z"
         style="opacity:1;fill:#ff0000;fill-opacity:1;stroke:none;stroke-width:0.08101707;stroke-opacity:1" />
    </g>
  </g>
</svg>
